<?xml version="1.0" encoding="UTF-8" standalone="no"?><!DOCTYPE svg PUBLIC "-//W3C//DTD SVG 1.1//EN" "http://www.w3.org/Graphics/SVG/1.1/DTD/svg11.dtd"><svg width="100%" height="100%" viewBox="0 0 571 117" version="1.1" xmlns="http://www.w3.org/2000/svg" xmlns:xlink="http://www.w3.org/1999/xlink" xml:space="preserve" xmlns:serif="http://www.serif.com/" style="fill-rule:evenodd;clip-rule:evenodd;"><g><clipPath id="_clip1"><path d="M115.8,25l0,65.8c0,13.798 -11.202,25 -25,25l-65.8,0c-13.798,0 -25,-11.202 -25,-25l0,-65.8c0,-13.798 11.202,-25 25,-25l65.8,0c13.798,0 25,11.202 25,25Z"/></clipPath><g clip-path="url(#_clip1)"><path d="M115.8,25l0,65.8c0,13.798 -11.202,25 -25,25l-65.8,0c-13.798,0 -25,-11.202 -25,-25l0,-65.8c0,-13.798 11.202,-25 25,-25l65.8,0c13.798,0 25,11.202 25,25Z" style="fill:#0b68f7;"/><path d="M56.978,26.454l0.004,0.004l0.008,-0.004l-0.004,0.004c0.867,0.013 1.709,0.301 2.397,0.83c0.689,0.53 1.189,1.27 1.424,2.108l11.991,42.647l5.9,-15.723c0.288,-0.768 0.803,-1.432 1.477,-1.9c0.674,-0.467 1.475,-0.715 2.295,-0.716l93.29,0c1.069,0 2.093,0.425 2.848,1.18c0.756,0.756 1.184,1.783 1.184,2.852c-0,1.069 -0.428,2.093 -1.184,2.848c-0.756,0.755 -1.78,1.18 -2.848,1.18l-90.495,0l-9.241,24.638c-0.298,0.795 -0.839,1.476 -1.546,1.945c-0.708,0.469 -1.548,0.703 -2.397,0.667c-0.849,-0.036 -1.665,-0.34 -2.332,-0.867c-0.666,-0.527 -1.149,-1.253 -1.379,-2.071l-11.654,-41.43l-4.464,14.29c-0.256,0.82 -0.769,1.538 -1.461,2.047c-0.691,0.508 -1.527,0.78 -2.384,0.781l-86.67,0c-1.069,-0 -2.092,-0.425 -2.848,-1.18c-0.756,-0.756 -1.184,-1.78 -1.184,-2.848c0,-1.069 0.428,-2.096 1.184,-2.852c0.756,-0.755 1.78,-1.18 2.848,-1.18l83.708,0l7.63,-24.422l0.24,-0.602c0.289,-0.578 0.716,-1.082 1.245,-1.465c0.7,-0.505 1.543,-0.766 2.405,-0.757l0.004,-0.004l0.008,0Z" style="fill:#fff;fill-rule:nonzero;stroke:#fff;stroke-width:1.25px;"/></g></g><path d="M162.858,92.15c-3.911,0 -7.364,-0.947 -10.358,-2.842c-2.933,-1.894 -5.225,-4.583 -6.875,-8.067c-1.65,-3.544 -2.475,-7.7 -2.475,-12.467c0,-4.828 0.825,-8.953 2.475,-12.375c1.65,-3.483 3.942,-6.172 6.875,-8.067c2.995,-1.894 6.447,-2.842 10.358,-2.842c3.728,0 6.967,0.917 9.717,2.75c2.811,1.833 4.706,4.248 5.683,7.242l-1.008,0l0,-23.833c0,-1.894 0.489,-3.331 1.467,-4.308c0.978,-0.978 2.383,-1.467 4.217,-1.467c1.833,0 3.239,0.489 4.217,1.467c1.039,0.978 1.558,2.414 1.558,4.308l0,54.45c0,1.895 -0.489,3.361 -1.467,4.4c-0.978,0.978 -2.383,1.467 -4.217,1.467c-1.833,0 -3.239,-0.489 -4.217,-1.467c-0.978,-1.039 -1.467,-2.505 -1.467,-4.4l0,-7.15l1.008,2.75c-0.917,3.178 -2.78,5.714 -5.592,7.608c-2.811,1.895 -6.111,2.842 -9.9,2.842Zm3.208,-8.708c2.261,0 4.247,-0.55 5.958,-1.65c1.711,-1.1 3.025,-2.719 3.942,-4.858c0.978,-2.2 1.467,-4.919 1.467,-8.158c0,-4.889 -1.039,-8.525 -3.117,-10.908c-2.077,-2.444 -4.827,-3.667 -8.25,-3.667c-2.261,0 -4.247,0.55 -5.958,1.65c-1.711,1.039 -3.055,2.658 -4.033,4.858c-0.917,2.139 -1.375,4.828 -1.375,8.067c0,4.828 1.039,8.495 3.117,11c2.078,2.445 4.828,3.667 8.25,3.667Zm40.389,8.525c-1.894,0 -3.361,-0.489 -4.4,-1.467c-0.977,-1.039 -1.467,-2.505 -1.467,-4.4l0,-34.65c0,-1.894 0.489,-3.33 1.467,-4.308c0.978,-0.978 2.353,-1.467 4.125,-1.467c1.772,0 3.147,0.489 4.125,1.467c0.978,0.978 1.467,2.414 1.467,4.308l0,5.775l-0.917,0c0.856,-3.667 2.536,-6.447 5.042,-8.342c2.506,-1.894 5.836,-3.025 9.992,-3.392c1.283,-0.122 2.292,0.214 3.025,1.008c0.795,0.733 1.253,1.895 1.375,3.483c0.123,1.528 -0.244,2.781 -1.1,3.758c-0.794,0.917 -2.017,1.467 -3.667,1.65l-2.017,0.183c-3.727,0.367 -6.539,1.528 -8.433,3.483c-1.894,1.895 -2.842,4.583 -2.842,8.067l0,18.975c0,1.895 -0.489,3.361 -1.467,4.4c-0.978,0.978 -2.414,1.467 -4.308,1.467Zm33.471,-0.275c-2.078,0 -3.758,-0.642 -5.042,-1.925c-1.222,-1.283 -1.833,-2.933 -1.833,-4.95c0,-1.955 0.611,-3.544 1.833,-4.767c1.283,-1.283 2.964,-1.925 5.042,-1.925c2.139,0 3.789,0.642 4.95,1.925c1.222,1.222 1.833,2.811 1.833,4.767c0,2.017 -0.611,3.667 -1.833,4.95c-1.161,1.283 -2.811,1.925 -4.95,1.925Zm31.728,0.458c-3.239,0 -6.142,-0.611 -8.708,-1.833c-2.505,-1.283 -4.492,-2.994 -5.958,-5.133c-1.405,-2.139 -2.108,-4.552 -2.108,-7.242c0,-3.3 0.855,-5.897 2.567,-7.792c1.711,-1.955 4.492,-3.361 8.342,-4.217c3.85,-0.855 9.014,-1.283 15.492,-1.283l4.583,0l0,6.6l-4.492,0c-3.789,0 -6.814,0.183 -9.075,0.55c-2.261,0.367 -3.88,1.008 -4.858,1.925c-0.917,0.856 -1.375,2.078 -1.375,3.667c0,2.017 0.703,3.667 2.108,4.95c1.405,1.283 3.361,1.925 5.867,1.925c2.017,0 3.789,-0.458 5.317,-1.375c1.589,-0.977 2.842,-2.292 3.758,-3.942c0.917,-1.65 1.375,-3.544 1.375,-5.683l0,-10.542c0,-3.055 -0.672,-5.255 -2.017,-6.6c-1.345,-1.344 -3.605,-2.017 -6.783,-2.017c-1.772,0 -3.697,0.214 -5.775,0.642c-2.017,0.428 -4.155,1.161 -6.417,2.2c-1.161,0.55 -2.2,0.703 -3.117,0.458c-0.855,-0.244 -1.528,-0.733 -2.017,-1.467c-0.489,-0.794 -0.733,-1.65 -0.733,-2.567c0,-0.917 0.245,-1.803 0.733,-2.658c0.489,-0.917 1.314,-1.589 2.475,-2.017c2.811,-1.161 5.5,-1.986 8.067,-2.475c2.628,-0.489 5.011,-0.733 7.15,-0.733c4.4,0 8.005,0.672 10.817,2.017c2.872,1.345 5.011,3.392 6.417,6.142c1.405,2.689 2.108,6.173 2.108,10.45l0,22c0,1.895 -0.458,3.361 -1.375,4.4c-0.917,0.978 -2.23,1.467 -3.942,1.467c-1.711,0 -3.055,-0.489 -4.033,-1.467c-0.917,-1.039 -1.375,-2.505 -1.375,-4.4l0,-4.4l0.733,0c-0.428,2.139 -1.283,4.003 -2.567,5.592c-1.222,1.528 -2.78,2.72 -4.675,3.575c-1.895,0.856 -4.064,1.283 -6.508,1.283Zm56.272,16.5c-3.3,0 -6.508,-0.305 -9.625,-0.917c-3.055,-0.611 -5.836,-1.558 -8.342,-2.842c-1.161,-0.611 -1.955,-1.344 -2.383,-2.2c-0.367,-0.855 -0.489,-1.742 -0.367,-2.658c0.183,-0.855 0.55,-1.619 1.1,-2.292c0.611,-0.672 1.345,-1.13 2.2,-1.375c0.856,-0.244 1.742,-0.122 2.658,0.367c2.689,1.345 5.225,2.2 7.608,2.567c2.445,0.428 4.523,0.642 6.233,0.642c4.095,0 7.15,-1.008 9.167,-3.025c2.078,-1.955 3.117,-4.889 3.117,-8.8l0,-8.25l0.825,0c-0.917,3.117 -2.842,5.622 -5.775,7.517c-2.872,1.833 -6.142,2.75 -9.808,2.75c-4.033,0 -7.547,-0.917 -10.542,-2.75c-2.994,-1.894 -5.317,-4.522 -6.967,-7.883c-1.65,-3.361 -2.475,-7.272 -2.475,-11.733c0,-3.361 0.458,-6.386 1.375,-9.075c0.978,-2.75 2.322,-5.102 4.033,-7.058c1.773,-1.955 3.881,-3.453 6.325,-4.492c2.506,-1.1 5.256,-1.65 8.25,-1.65c3.789,0 7.089,0.948 9.9,2.842c2.873,1.833 4.736,4.278 5.592,7.333l-0.917,2.292l0,-6.508c0,-1.894 0.489,-3.33 1.467,-4.308c1.039,-0.978 2.445,-1.467 4.217,-1.467c1.833,0 3.239,0.489 4.217,1.467c0.978,0.978 1.467,2.414 1.467,4.308l0,35.292c0,7.273 -1.925,12.742 -5.775,16.408c-3.85,3.667 -9.442,5.5 -16.775,5.5Zm-0.275,-27.225c2.383,0 4.431,-0.55 6.142,-1.65c1.711,-1.1 3.025,-2.658 3.942,-4.675c0.978,-2.078 1.467,-4.522 1.467,-7.333c0,-4.217 -1.039,-7.517 -3.117,-9.9c-2.078,-2.444 -4.889,-3.667 -8.433,-3.667c-2.383,0 -4.43,0.55 -6.142,1.65c-1.711,1.1 -3.055,2.658 -4.033,4.675c-0.917,2.017 -1.375,4.431 -1.375,7.242c0,4.217 1.039,7.547 3.117,9.992c2.078,2.445 4.889,3.667 8.433,3.667Zm56.789,10.725c-5.072,0 -9.442,-0.947 -13.108,-2.842c-3.667,-1.894 -6.508,-4.583 -8.525,-8.067c-1.955,-3.483 -2.933,-7.608 -2.933,-12.375c0,-4.644 0.947,-8.708 2.842,-12.192c1.955,-3.483 4.614,-6.203 7.975,-8.158c3.422,-2.017 7.303,-3.025 11.642,-3.025c3.178,0 6.02,0.52 8.525,1.558c2.567,1.039 4.736,2.536 6.508,4.492c1.833,1.956 3.208,4.339 4.125,7.15c0.978,2.75 1.467,5.867 1.467,9.35c0,1.1 -0.397,1.956 -1.192,2.567c-0.733,0.55 -1.803,0.825 -3.208,0.825l-29.425,0l0,-6.6l25.758,0l-1.467,1.375c0,-2.811 -0.428,-5.164 -1.283,-7.058c-0.795,-1.894 -1.986,-3.33 -3.575,-4.308c-1.528,-1.039 -3.453,-1.558 -5.775,-1.558c-2.567,0 -4.767,0.611 -6.6,1.833c-1.772,1.161 -3.147,2.842 -4.125,5.042c-0.917,2.139 -1.375,4.706 -1.375,7.7l0,0.642c0,5.011 1.161,8.77 3.483,11.275c2.383,2.445 5.867,3.667 10.45,3.667c1.589,0 3.361,-0.183 5.317,-0.55c2.017,-0.427 3.911,-1.13 5.683,-2.108c1.283,-0.733 2.414,-1.039 3.392,-0.917c0.978,0.061 1.742,0.398 2.292,1.008c0.611,0.611 0.978,1.375 1.1,2.292c0.122,0.856 -0.061,1.742 -0.55,2.658c-0.428,0.917 -1.192,1.711 -2.292,2.383c-2.139,1.345 -4.614,2.353 -7.425,3.025c-2.75,0.611 -5.317,0.917 -7.7,0.917Zm33.276,-0.183c-1.835,0 -3.241,-0.489 -4.219,-1.467c-0.977,-1.039 -1.467,-2.505 -1.467,-4.4l0,-34.65c0,-1.894 0.489,-3.33 1.467,-4.308c0.978,-0.978 2.353,-1.467 4.127,-1.467c1.771,0 3.146,0.489 4.125,1.467c0.975,0.978 1.467,2.414 1.467,4.308l0,6.233l-1.008,-2.292c1.342,-3.239 3.421,-5.683 6.233,-7.333c2.871,-1.711 6.108,-2.567 9.717,-2.567c3.604,0 6.567,0.672 8.892,2.017c2.321,1.345 4.062,3.392 5.225,6.142c1.158,2.689 1.742,6.111 1.742,10.267l0,22.183c0,1.895 -0.492,3.361 -1.467,4.4c-0.979,0.978 -2.383,1.467 -4.217,1.467c-1.833,0 -3.271,-0.489 -4.308,-1.467c-0.979,-1.039 -1.467,-2.505 -1.467,-4.4l0,-21.633c0,-3.483 -0.675,-6.019 -2.017,-7.608c-1.283,-1.589 -3.3,-2.383 -6.05,-2.383c-3.363,0 -6.05,1.07 -8.067,3.208c-1.958,2.078 -2.933,4.858 -2.933,8.342l0,20.075c0,3.911 -1.925,5.867 -5.775,5.867Zm65.171,0.183c-3.913,0 -7.367,-0.947 -10.358,-2.842c-2.933,-1.894 -5.225,-4.583 -6.875,-8.067c-1.65,-3.544 -2.475,-7.7 -2.475,-12.467c0,-4.828 0.825,-8.953 2.475,-12.375c1.65,-3.483 3.942,-6.172 6.875,-8.067c2.992,-1.894 6.446,-2.842 10.358,-2.842c3.725,0 6.967,0.917 9.717,2.75c2.808,1.833 4.704,4.248 5.683,7.242l-1.008,0l0,-23.833c0,-1.894 0.488,-3.331 1.467,-4.308c0.975,-0.978 2.383,-1.467 4.217,-1.467c1.833,0 3.238,0.489 4.217,1.467c1.038,0.978 1.558,2.414 1.558,4.308l0,54.45c0,1.895 -0.492,3.361 -1.467,4.4c-0.979,0.978 -2.383,1.467 -4.217,1.467c-1.833,0 -3.242,-0.489 -4.217,-1.467c-0.979,-1.039 -1.467,-2.505 -1.467,-4.4l0,-7.15l1.008,2.75c-0.917,3.178 -2.783,5.714 -5.592,7.608c-2.813,1.895 -6.113,2.842 -9.9,2.842Zm3.208,-8.708c2.258,0 4.246,-0.55 5.958,-1.65c1.708,-1.1 3.025,-2.719 3.942,-4.858c0.975,-2.2 1.467,-4.919 1.467,-8.158c0,-4.889 -1.042,-8.525 -3.117,-10.908c-2.079,-2.444 -4.829,-3.667 -8.25,-3.667c-2.262,0 -4.25,0.55 -5.958,1.65c-1.712,1.039 -3.058,2.658 -4.033,4.858c-0.917,2.139 -1.375,4.828 -1.375,8.067c0,4.828 1.038,8.495 3.117,11c2.075,2.445 4.825,3.667 8.25,3.667Zm49.279,8.708c-3.238,0 -6.142,-0.611 -8.708,-1.833c-2.504,-1.283 -4.492,-2.994 -5.958,-5.133c-1.404,-2.139 -2.108,-4.552 -2.108,-7.242c0,-3.3 0.854,-5.897 2.567,-7.792c1.712,-1.955 4.492,-3.361 8.342,-4.217c3.85,-0.855 9.013,-1.283 15.492,-1.283l4.583,0l0,6.6l-4.492,0c-3.787,0 -6.812,0.183 -9.075,0.55c-2.263,0.367 -3.879,1.008 -4.858,1.925c-0.917,0.856 -1.375,2.078 -1.375,3.667c0,2.017 0.704,3.667 2.108,4.95c1.404,1.283 3.363,1.925 5.867,1.925c2.017,0 3.787,-0.458 5.317,-1.375c1.587,-0.977 2.842,-2.292 3.758,-3.942c0.917,-1.65 1.375,-3.544 1.375,-5.683l0,-10.542c0,-3.055 -0.671,-5.255 -2.017,-6.6c-1.346,-1.344 -3.604,-2.017 -6.783,-2.017c-1.771,0 -3.696,0.214 -5.775,0.642c-2.017,0.428 -4.154,1.161 -6.417,2.2c-1.163,0.55 -2.2,0.703 -3.117,0.458c-0.854,-0.244 -1.529,-0.733 -2.017,-1.467c-0.487,-0.794 -0.733,-1.65 -0.733,-2.567c0,-0.917 0.246,-1.803 0.733,-2.658c0.487,-0.917 1.312,-1.589 2.475,-2.017c2.812,-1.161 5.5,-1.986 8.067,-2.475c2.629,-0.489 5.012,-0.733 7.15,-0.733c4.4,0 8.004,0.672 10.817,2.017c2.871,1.345 5.013,3.392 6.417,6.142c1.404,2.689 2.108,6.173 2.108,10.45l0,22c0,1.895 -0.458,3.361 -1.375,4.4c-0.917,0.978 -2.229,1.467 -3.942,1.467c-1.712,0 -3.054,-0.489 -4.033,-1.467c-0.917,-1.039 -1.375,-2.505 -1.375,-4.4l0,-4.4l0.733,0c-0.429,2.139 -1.283,4.003 -2.567,5.592c-1.221,1.528 -2.779,2.72 -4.675,3.575c-1.896,0.856 -4.062,1.283 -6.508,1.283Z" style="fill:#fff;fill-rule:nonzero;"/></svg>