<?xml version="1.0" encoding="UTF-8" standalone="no"?><!DOCTYPE svg PUBLIC "-//W3C//DTD SVG 1.1//EN" "http://www.w3.org/Graphics/SVG/1.1/DTD/svg11.dtd"><svg width="100%" height="100%" viewBox="0 0 2380 488" version="1.1" xmlns="http://www.w3.org/2000/svg" xmlns:xlink="http://www.w3.org/1999/xlink" xml:space="preserve" xmlns:serif="http://www.serif.com/" style="fill-rule:evenodd;clip-rule:evenodd;"><g><g><clipPath id="_clip1"><path d="M482.5,104.167l0,274.167c0,57.492 -46.675,104.167 -104.167,104.167l-274.167,0c-57.492,0 -104.167,-46.675 -104.167,-104.167l0,-274.167c0,-57.492 46.675,-104.167 104.167,-104.167l274.167,0c57.492,0 104.167,46.675 104.167,104.167Z"/></clipPath><g clip-path="url(#_clip1)"><path d="M482.5,104.167l0,274.167c0,57.492 -46.675,104.167 -104.167,104.167l-274.167,0c-57.492,0 -104.167,-46.675 -104.167,-104.167l0,-274.167c0,-57.492 46.675,-104.167 104.167,-104.167l274.167,0c57.492,0 104.167,46.675 104.167,104.167Z" style="fill:#04c951;"/><path d="M237.408,110.225l0.017,0.017l0.033,-0.017l-0.017,0.017c3.613,0.054 7.121,1.254 9.988,3.458c2.871,2.208 4.954,5.292 5.933,8.783l49.963,177.696l24.583,-65.513c1.2,-3.2 3.346,-5.967 6.154,-7.917c2.808,-1.946 6.146,-2.979 9.562,-2.983l388.708,0c4.454,0 8.721,1.771 11.867,4.917c3.15,3.15 4.933,7.429 4.933,11.883c0,4.454 -1.783,8.721 -4.933,11.867c-3.15,3.146 -7.417,4.917 -11.867,4.917l-377.063,0l-38.504,102.658c-1.242,3.312 -3.496,6.15 -6.442,8.104c-2.95,1.954 -6.45,2.929 -9.988,2.779c-3.538,-0.15 -6.938,-1.417 -9.717,-3.613c-2.775,-2.196 -4.788,-5.221 -5.746,-8.629l-48.558,-172.625l-18.6,59.542c-1.067,3.417 -3.204,6.408 -6.088,8.529c-2.879,2.117 -6.362,3.25 -9.933,3.254l-361.125,0c-4.454,0 -8.717,-1.771 -11.867,-4.917c-3.15,-3.15 -4.933,-7.417 -4.933,-11.867c0,-4.454 1.783,-8.733 4.933,-11.883c3.15,-3.146 7.417,-4.917 11.867,-4.917l348.783,0l31.792,-101.758l1,-2.508c1.204,-2.408 2.983,-4.508 5.188,-6.104c2.917,-2.104 6.429,-3.192 10.021,-3.154l0.017,-0.017l0.037,0Z" style="fill:#fff;fill-rule:nonzero;stroke:#fff;stroke-width:5.21px;"/></g></g></g><path d="M678.575,383.958c-16.296,0 -30.683,-3.946 -43.158,-11.842c-12.221,-7.892 -21.771,-19.096 -28.646,-33.612c-6.875,-14.767 -10.312,-32.083 -10.312,-51.946c0,-20.117 3.438,-37.304 10.312,-51.562c6.875,-14.512 16.425,-25.717 28.646,-33.613c12.479,-7.892 26.862,-11.842 43.158,-11.842c15.533,0 29.029,3.821 40.488,11.458c11.713,7.637 19.608,17.7 23.679,30.175l-4.2,0l0,-99.304c0,-7.892 2.038,-13.879 6.113,-17.95c4.075,-4.075 9.929,-6.112 17.571,-6.112c7.638,0 13.496,2.038 17.571,6.112c4.329,4.075 6.492,10.058 6.492,17.95l0,226.875c0,7.896 -2.038,14.004 -6.112,18.333c-4.075,4.075 -9.929,6.113 -17.571,6.113c-7.638,0 -13.496,-2.038 -17.571,-6.113c-4.075,-4.329 -6.112,-10.437 -6.112,-18.333l0,-29.792l4.2,11.458c-3.821,13.242 -11.583,23.808 -23.3,31.7c-11.713,7.896 -25.462,11.842 -41.25,11.842l0.004,0.004Zm13.367,-36.283c9.421,0 17.696,-2.292 24.825,-6.875c7.129,-4.583 12.604,-11.329 16.425,-20.242c4.075,-9.167 6.113,-20.496 6.113,-33.992c0,-20.371 -4.329,-35.521 -12.987,-45.45c-8.654,-10.183 -20.112,-15.279 -34.375,-15.279c-9.421,0 -17.696,2.292 -24.825,6.875c-7.129,4.329 -12.729,11.075 -16.804,20.242c-3.821,8.913 -5.729,20.117 -5.729,33.612c0,20.117 4.329,35.396 12.987,45.833c8.658,10.188 20.117,15.279 34.375,15.279l-0.004,-0.004Zm168.288,35.521c-7.892,0 -14.004,-2.038 -18.333,-6.113c-4.071,-4.329 -6.112,-10.438 -6.112,-18.333l0,-144.375c0,-7.892 2.038,-13.875 6.112,-17.95c4.075,-4.075 9.804,-6.113 17.188,-6.113c7.383,0 13.113,2.037 17.188,6.113c4.075,4.075 6.113,10.058 6.113,17.95l0,24.062l-3.821,0c3.567,-15.279 10.567,-26.863 21.008,-34.758c10.442,-7.892 24.317,-12.604 41.633,-14.133c5.346,-0.508 9.55,0.892 12.604,4.2c3.312,3.054 5.221,7.896 5.729,14.512c0.512,6.367 -1.017,11.587 -4.583,15.658c-3.308,3.821 -8.404,6.113 -15.279,6.875l-8.404,0.762c-15.529,1.529 -27.246,6.367 -35.137,14.512c-7.892,7.896 -11.842,19.096 -11.842,33.613l0,79.062c0,7.896 -2.038,14.004 -6.113,18.333c-4.075,4.075 -10.058,6.113 -17.95,6.113l0,0.008Zm139.463,-1.146c-8.658,0 -15.658,-2.675 -21.008,-8.021c-5.092,-5.346 -7.638,-12.221 -7.638,-20.625c0,-8.146 2.546,-14.767 7.638,-19.862c5.346,-5.346 12.35,-8.021 21.008,-8.021c8.913,0 15.787,2.675 20.625,8.021c5.092,5.092 7.637,11.713 7.637,19.862c0,8.404 -2.546,15.279 -7.637,20.625c-4.837,5.346 -11.712,8.021 -20.625,8.021Zm132.2,1.908c-13.496,0 -25.592,-2.546 -36.283,-7.637c-10.438,-5.346 -18.717,-12.475 -24.825,-21.387c-5.854,-8.912 -8.783,-18.967 -8.783,-30.175c0,-13.75 3.562,-24.571 10.696,-32.467c7.129,-8.146 18.717,-14.004 34.758,-17.571c16.042,-3.562 37.558,-5.346 64.55,-5.346l19.096,0l0,27.5l-18.717,0c-15.787,0 -28.392,0.763 -37.812,2.292c-9.421,1.529 -16.167,4.2 -20.242,8.021c-3.821,3.567 -5.729,8.658 -5.729,15.279c0,8.404 2.929,15.279 8.783,20.625c5.854,5.346 14.004,8.021 24.446,8.021c8.404,0 15.787,-1.908 22.154,-5.729c6.621,-4.071 11.842,-9.55 15.658,-16.425c3.821,-6.875 5.729,-14.767 5.729,-23.679l0,-43.925c0,-12.729 -2.8,-21.896 -8.404,-27.5c-5.604,-5.6 -15.021,-8.404 -28.263,-8.404c-7.383,0 -15.404,0.892 -24.062,2.675c-8.404,1.783 -17.312,4.838 -26.737,9.167c-4.837,2.292 -9.167,2.929 -12.987,1.908c-3.562,-1.017 -6.367,-3.054 -8.404,-6.112c-2.037,-3.308 -3.054,-6.875 -3.054,-10.696c0,-3.821 1.021,-7.512 3.054,-11.075c2.037,-3.821 5.475,-6.621 10.313,-8.404c11.712,-4.838 22.917,-8.275 33.612,-10.312c10.95,-2.037 20.879,-3.054 29.792,-3.054c18.333,0 33.354,2.8 45.071,8.404c11.967,5.604 20.879,14.133 26.737,25.592c5.854,11.204 8.783,25.721 8.783,43.542l0,91.667c0,7.896 -1.908,14.004 -5.729,18.333c-3.821,4.075 -9.292,6.113 -16.425,6.113c-7.129,0 -12.729,-2.038 -16.804,-6.113c-3.821,-4.329 -5.729,-10.438 -5.729,-18.333l0,-18.333l3.054,0c-1.783,8.913 -5.346,16.679 -10.696,23.3c-5.092,6.367 -11.583,11.333 -19.479,14.896c-7.896,3.567 -16.933,5.346 -27.117,5.346l-0.004,0Zm234.467,68.75c-13.75,0 -27.117,-1.271 -40.104,-3.821c-12.729,-2.546 -24.317,-6.492 -34.758,-11.842c-4.837,-2.546 -8.146,-5.6 -9.929,-9.167c-1.529,-3.563 -2.037,-7.258 -1.529,-11.075c0.763,-3.562 2.292,-6.746 4.583,-9.55c2.546,-2.8 5.604,-4.708 9.167,-5.729c3.567,-1.017 7.258,-0.508 11.075,1.529c11.204,5.604 21.771,9.167 31.7,10.696c10.188,1.783 18.846,2.675 25.971,2.675c17.063,0 29.792,-4.2 38.196,-12.604c8.658,-8.146 12.988,-20.371 12.988,-36.667l0,-34.375l3.438,0c-3.821,12.988 -11.842,23.425 -24.062,31.321c-11.967,7.637 -25.592,11.458 -40.867,11.458c-16.804,0 -31.446,-3.821 -43.925,-11.458c-12.475,-7.892 -22.154,-18.842 -29.029,-32.846c-6.875,-14.004 -10.312,-30.3 -10.312,-48.888c0,-14.004 1.908,-26.608 5.729,-37.812c4.075,-11.458 9.675,-21.258 16.804,-29.408c7.388,-8.146 16.171,-14.388 26.354,-18.717c10.442,-4.583 21.9,-6.875 34.375,-6.875c15.787,0 29.537,3.95 41.25,11.842c11.971,7.637 19.733,17.825 23.3,30.554l-3.821,9.55l0,-27.117c0,-7.892 2.037,-13.875 6.112,-17.95c4.329,-4.075 10.188,-6.112 17.571,-6.112c7.638,0 13.496,2.037 17.571,6.112c4.075,4.075 6.112,10.058 6.112,17.95l0,147.05c0,30.304 -8.021,53.092 -24.062,68.367c-16.042,15.279 -39.342,22.917 -69.896,22.917l-0,-0.008Zm-1.146,-113.437c9.929,0 18.463,-2.292 25.592,-6.875c7.129,-4.583 12.604,-11.075 16.425,-19.479c4.075,-8.658 6.112,-18.842 6.112,-30.554c0,-17.571 -4.329,-31.321 -12.987,-41.25c-8.658,-10.183 -20.371,-15.279 -35.138,-15.279c-9.929,0 -18.458,2.292 -25.592,6.875c-7.129,4.583 -12.729,11.075 -16.804,19.479c-3.821,8.404 -5.729,18.463 -5.729,30.175c0,17.571 4.329,31.446 12.987,41.633c8.658,10.188 20.371,15.279 35.138,15.279l-0.004,-0.004Zm236.621,44.687c-21.133,0 -39.342,-3.946 -54.617,-11.842c-15.279,-7.892 -27.117,-19.096 -35.521,-33.612c-8.146,-14.513 -12.221,-31.7 -12.221,-51.563c0,-19.35 3.946,-36.283 11.842,-50.8c8.146,-14.512 19.225,-25.846 33.229,-33.992c14.258,-8.404 30.429,-12.604 48.508,-12.604c13.242,0 25.083,2.167 35.521,6.492c10.696,4.329 19.733,10.567 27.117,18.717c7.638,8.15 13.367,18.079 17.188,29.792c4.075,11.458 6.112,24.446 6.112,38.958c0,4.583 -1.654,8.15 -4.967,10.696c-3.054,2.292 -7.512,3.438 -13.367,3.438l-122.604,0l0,-27.5l107.325,0l-6.112,5.729c0,-11.712 -1.783,-21.517 -5.346,-29.408c-3.313,-7.892 -8.275,-13.875 -14.896,-17.95c-6.367,-4.329 -14.388,-6.492 -24.062,-6.492c-10.696,0 -19.862,2.546 -27.5,7.637c-7.383,4.838 -13.112,11.842 -17.188,21.008c-3.821,8.913 -5.729,19.608 -5.729,32.083l0,2.675c0,20.879 4.838,36.542 14.513,46.979c9.929,10.187 24.446,15.279 43.542,15.279c6.621,0 14.004,-0.763 22.154,-2.292c8.404,-1.779 16.296,-4.708 23.679,-8.783c5.346,-3.054 10.058,-4.329 14.133,-3.821c4.075,0.254 7.258,1.658 9.55,4.2c2.546,2.546 4.075,5.729 4.583,9.55c0.508,3.567 -0.254,7.258 -2.292,11.075c-1.783,3.821 -4.967,7.129 -9.55,9.929c-8.913,5.604 -19.225,9.804 -30.938,12.604c-11.458,2.546 -22.154,3.821 -32.083,3.821l-0.004,-0.004Zm138.65,-0.762c-7.646,0 -13.504,-2.038 -17.579,-6.113c-4.071,-4.329 -6.112,-10.438 -6.112,-18.333l0,-144.375c0,-7.892 2.037,-13.875 6.112,-17.95c4.075,-4.075 9.804,-6.112 17.196,-6.112c7.379,0 13.108,2.037 17.188,6.112c4.063,4.075 6.112,10.058 6.112,17.95l0,25.971l-4.2,-9.55c5.592,-13.496 14.254,-23.679 25.971,-30.554c11.962,-7.129 25.45,-10.696 40.487,-10.696c15.017,0 27.362,2.8 37.05,8.404c9.671,5.604 16.925,14.133 21.771,25.592c4.825,11.204 7.258,25.462 7.258,42.779l0,92.429c0,7.896 -2.05,14.004 -6.112,18.333c-4.079,4.075 -9.929,6.113 -17.571,6.113c-7.638,0 -13.629,-2.038 -17.95,-6.113c-4.079,-4.329 -6.112,-10.438 -6.112,-18.333l0,-90.137c0,-14.512 -2.812,-25.079 -8.404,-31.7c-5.346,-6.621 -13.75,-9.929 -25.208,-9.929c-14.013,0 -25.208,4.458 -33.613,13.367c-8.158,8.658 -12.221,20.242 -12.221,34.758l0,83.646c0,16.296 -8.021,24.446 -24.062,24.446l-0,-0.004Zm271.546,0.762c-16.304,0 -30.696,-3.946 -43.158,-11.842c-12.221,-7.892 -21.771,-19.096 -28.646,-33.612c-6.875,-14.767 -10.312,-32.083 -10.312,-51.946c0,-20.117 3.437,-37.304 10.312,-51.562c6.875,-14.512 16.425,-25.717 28.646,-33.613c12.467,-7.892 26.858,-11.842 43.158,-11.842c15.521,0 29.029,3.821 40.487,11.458c11.7,7.637 19.6,17.7 23.679,30.175l-4.2,0l0,-99.304c0,-7.892 2.033,-13.879 6.113,-17.95c4.062,-4.075 9.929,-6.112 17.571,-6.112c7.637,0 13.492,2.038 17.571,6.112c4.325,4.075 6.492,10.058 6.492,17.95l0,226.875c0,7.896 -2.05,14.004 -6.113,18.333c-4.079,4.075 -9.929,6.113 -17.571,6.113c-7.638,0 -13.508,-2.038 -17.571,-6.113c-4.079,-4.329 -6.113,-10.437 -6.113,-18.333l0,-29.792l4.2,11.458c-3.821,13.242 -11.596,23.808 -23.3,31.7c-11.721,7.896 -25.471,11.842 -41.25,11.842l0.004,0.004Zm13.367,-36.283c9.408,0 17.692,-2.292 24.825,-6.875c7.117,-4.583 12.604,-11.329 16.425,-20.242c4.062,-9.167 6.112,-20.496 6.112,-33.992c0,-20.371 -4.342,-35.521 -12.988,-45.45c-8.662,-10.183 -20.121,-15.279 -34.375,-15.279c-9.425,0 -17.708,2.292 -24.825,6.875c-7.133,4.329 -12.742,11.075 -16.804,20.242c-3.821,8.913 -5.729,20.117 -5.729,33.612c0,20.117 4.325,35.396 12.987,45.833c8.646,10.188 20.104,15.279 34.375,15.279l-0.004,-0.004Zm205.329,36.283c-13.492,0 -25.592,-2.546 -36.283,-7.637c-10.433,-5.346 -18.717,-12.475 -24.825,-21.387c-5.85,-8.912 -8.783,-18.967 -8.783,-30.175c0,-13.75 3.558,-24.571 10.696,-32.467c7.133,-8.146 18.717,-14.004 34.758,-17.571c16.042,-3.562 37.554,-5.346 64.55,-5.346l19.096,0l0,27.5l-18.717,0c-15.779,0 -28.383,0.763 -37.812,2.292c-9.429,1.529 -16.163,4.2 -20.242,8.021c-3.821,3.567 -5.729,8.658 -5.729,15.279c0,8.404 2.933,15.279 8.783,20.625c5.85,5.346 14.013,8.021 24.446,8.021c8.404,0 15.779,-1.908 22.154,-5.729c6.612,-4.071 11.842,-9.55 15.658,-16.425c3.821,-6.875 5.729,-14.767 5.729,-23.679l0,-43.925c0,-12.729 -2.796,-21.896 -8.404,-27.5c-5.608,-5.6 -15.017,-8.404 -28.263,-8.404c-7.379,0 -15.4,0.892 -24.062,2.675c-8.404,1.783 -17.308,4.838 -26.738,9.167c-4.846,2.292 -9.167,2.929 -12.987,1.908c-3.558,-1.017 -6.371,-3.054 -8.404,-6.112c-2.029,-3.308 -3.054,-6.875 -3.054,-10.696c0,-3.821 1.025,-7.512 3.054,-11.075c2.029,-3.821 5.467,-6.621 10.312,-8.404c11.717,-4.838 22.917,-8.275 33.613,-10.312c10.954,-2.037 20.883,-3.054 29.792,-3.054c18.333,0 33.35,2.8 45.071,8.404c11.963,5.604 20.888,14.133 26.738,25.592c5.85,11.204 8.783,25.721 8.783,43.542l0,91.667c0,7.896 -1.908,14.004 -5.729,18.333c-3.821,4.075 -9.288,6.113 -16.425,6.113c-7.133,0 -12.725,-2.038 -16.804,-6.113c-3.821,-4.329 -5.729,-10.438 -5.729,-18.333l0,-18.333l3.054,0c-1.787,8.913 -5.346,16.679 -10.696,23.3c-5.088,6.367 -11.579,11.333 -19.479,14.896c-7.9,3.567 -16.925,5.346 -27.117,5.346l-0.004,0Z" style="fill:#fff;fill-rule:nonzero;"/></svg>